<svg xmlns="http://www.w3.org/2000/svg" width="278" height="216" viewBox="0 0 278 216" version="1.1">
	<path d="M 30.017 20.286 C 28.651 20.977, 27.091 22.801, 26.550 24.339 C 24.452 30.305, 31.290 36.032, 36.811 32.933 C 40.199 31.031, 40.974 28, 38.073 28 C 36.933 28, 36 28.480, 36 29.066 C 36 29.653, 34.763 29.990, 33.250 29.816 C 29.995 29.442, 29.005 26.071, 31.533 23.973 C 32.816 22.908, 33.567 22.873, 35.068 23.810 C 36.116 24.465, 37.654 25, 38.486 25 C 41.237 25, 39.914 22.044, 36.316 20.150 C 33.596 18.718, 33.093 18.729, 30.017 20.286 M 47 19.689 C 41.717 21.704, 40.216 28.260, 44.189 31.961 C 50.759 38.083, 61.026 28.980, 55.250 22.153 C 53.372 19.934, 49.438 18.758, 47 19.689 M 141.250 20.031 C 139.731 20.642, 139 21.775, 139 23.519 C 139 25.544, 139.785 26.430, 142.632 27.619 C 145.085 28.645, 145.934 29.466, 145.249 30.151 C 144.565 30.835, 143.564 30.744, 142.163 29.870 C 139.656 28.304, 138.162 29.447, 139.643 31.798 C 141.708 35.078, 148.393 34.488, 149.523 30.926 C 150.233 28.692, 147.666 25, 145.404 25 C 144.697 25, 143.844 24.557, 143.509 24.015 C 143.132 23.404, 144.059 23.262, 145.950 23.640 C 148.364 24.123, 149 23.906, 149 22.600 C 149 21.354, 144.920 18.640, 143.685 19.063 C 143.583 19.098, 142.488 19.534, 141.250 20.031 M 155.500 20.155 C 150.452 22.916, 149.595 27.686, 153.455 31.545 C 158.275 36.366, 166.030 33.650, 166.217 27.076 C 166.289 24.535, 165.623 23.072, 163.601 21.333 C 160.634 18.781, 158.563 18.480, 155.500 20.155 M 170.223 20.557 C 166.840 22.926, 167.388 25.846, 171.540 27.581 C 173.542 28.418, 174.797 29.520, 174.427 30.117 C 173.971 30.856, 173.446 30.846, 172.687 30.087 C 170.914 28.314, 167.807 28.757, 168.186 30.729 C 168.669 33.235, 173.329 34.627, 176.460 33.200 C 180.440 31.387, 179.934 27.288, 175.500 25.436 C 170.984 23.549, 171.031 22.728, 175.605 23.586 C 178.990 24.221, 179.145 24.139, 178.133 22.249 C 177.158 20.427, 174.965 19, 173.141 19 C 172.758 19, 171.445 19.701, 170.223 20.557 M 59 27 C 59 33.261, 59.205 34, 60.940 34 C 62.453 34, 62.947 33.188, 63.190 30.307 L 63.500 26.613 66 30.318 C 69.752 35.879, 71.440 34.837, 71.796 26.740 C 72.069 20.520, 71.934 20, 70.046 20 C 68.410 20, 67.995 20.651, 67.973 23.250 L 67.946 26.500 65.223 23.241 C 63.725 21.449, 61.712 19.986, 60.750 19.991 C 59.251 19.999, 59 21.003, 59 27 M 87 27 C 87 32.556, 87.310 34, 88.500 34 C 89.325 34, 90 33.127, 90 32.059 C 90 29.074, 91.579 28.780, 92.832 31.531 C 93.488 32.971, 94.800 34, 95.979 34 C 98.285 34, 98.406 33.626, 96.965 30.934 C 96.237 29.575, 96.268 28.368, 97.068 26.874 C 97.894 25.330, 97.909 24.096, 97.124 22.374 C 96.218 20.385, 95.310 20, 91.521 20 L 87 20 87 27 M 103.310 21.750 C 102.966 22.712, 101.855 25.654, 100.842 28.287 C 99.829 30.920, 99 33.282, 99 33.537 C 99 34.737, 102.855 33.820, 103.362 32.500 C 103.678 31.675, 104.865 31, 106 31 C 107.135 31, 108.322 31.675, 108.638 32.500 C 108.955 33.325, 110.115 34, 111.215 34 C 113.549 34, 113.314 32.224, 109.983 24.694 C 107.790 19.736, 104.545 18.304, 103.310 21.750 M 115 27 C 115 33.333, 115.190 34, 117 34 C 118.333 34, 119 33.333, 119 32 C 119 30.723, 119.667 30, 120.845 30 C 123.193 30, 126 26.935, 126 24.371 C 126 21.313, 123.987 20, 119.300 20 L 115 20 115 27 M 128 27 L 128 34 132.500 34 C 136.333 34, 137 33.704, 137 32 C 137 30.533, 136.333 30, 134.500 30 C 133.125 30, 132 29.550, 132 29 C 132 28.450, 132.900 28, 134 28 C 135.111 28, 136 27.333, 136 26.500 C 136 25.667, 135.111 25, 134 25 C 132.900 25, 132 24.550, 132 24 C 132 23.450, 133.125 23, 134.500 23 C 136.056 23, 137 22.433, 137 21.500 C 137 20.389, 135.833 20, 132.500 20 L 128 20 128 27 M 26 63 L 26 86 59 86 L 92 86 92 144 L 92 202 115.500 202 L 139 202 139 194.057 L 139 186.113 133.416 180.832 C 116.459 164.795, 107.691 144.532, 107.741 121.500 C 107.792 98.281, 115.078 79.947, 130.393 64.502 C 142.023 52.773, 153.755 45.830, 168.500 41.951 C 175.479 40.116, 175.271 40.110, 100.750 40.055 L 26 40 26 63 M 178.500 43.559 C 177.400 43.812, 174.133 44.498, 171.241 45.084 C 158.631 47.635, 144.336 55.664, 133.995 66.005 C 122.239 77.761, 115.340 91.521, 112.437 109 C 110.952 117.941, 110.862 120.935, 111.826 129.165 C 116.588 169.789, 151.328 199.873, 191.002 197.730 C 211.158 196.640, 229.866 186.953, 244.325 170.118 C 249.138 164.513, 256.962 151.620, 256.987 149.250 C 256.997 148.289, 252.063 148, 235.614 148 L 214.228 148 208.364 151.906 C 196.533 159.786, 184.396 161.075, 172.653 155.699 C 165.204 152.288, 156.710 144.144, 153.267 137.112 C 150.830 132.132, 150.519 130.369, 150.510 121.467 C 150.500 111.803, 150.643 111.147, 154.377 103.686 C 165.166 82.127, 190.401 76.162, 209.683 90.614 C 212.814 92.960, 213.233 93, 234.933 93 C 250.940 93, 257 92.683, 257 91.846 C 257 89.782, 250.255 78.646, 245.303 72.535 C 234.994 59.814, 218.878 49.243, 204.057 45.481 C 197.612 43.845, 182.269 42.691, 178.500 43.559 M 180.383 89.890 C 170.496 92.436, 164.263 97.768, 159.214 108 C 156.924 112.641, 156.508 114.749, 156.554 121.500 C 156.621 131.347, 159.407 137.483, 166.850 144.175 C 175.131 151.621, 186.035 153.824, 197.135 150.294 C 204.956 147.807, 213.941 138.651, 216.438 130.624 C 219.816 119.762, 217.219 108.788, 208.876 98.666 C 203.360 91.974, 189.213 87.617, 180.383 89.890 M 180.117 93.906 C 178.975 94.629, 179.284 96.582, 181.890 105.113 C 185.386 116.564, 186.336 118.159, 188.343 115.957 C 190.177 113.946, 195.342 96.333, 194.636 94.494 C 194.211 93.386, 192.442 93.004, 187.781 93.015 C 184.327 93.024, 180.878 93.425, 180.117 93.906 M 162.237 109.750 C 159.720 115.432, 158.713 119.710, 159.746 120.329 C 160.161 120.577, 165.218 120.942, 170.984 121.140 C 184.752 121.613, 185.078 120.565, 173.957 111.586 C 169.471 107.964, 165.472 105, 165.071 105 C 164.670 105, 163.395 107.138, 162.237 109.750 M 200.007 111.788 C 192.321 117.714, 190.512 120.448, 193.693 121.330 C 194.687 121.605, 199.775 121.531, 205 121.165 L 214.500 120.500 214.228 117.500 C 213.760 112.324, 210.975 106, 209.167 106.006 C 208.250 106.009, 204.128 108.611, 200.007 111.788 M 174.352 130.528 C 170.033 134.119, 166.500 137.787, 166.500 138.680 C 166.500 140.555, 175.374 147, 177.956 147 C 179.318 147, 180.290 144.749, 182.455 136.580 C 185.020 126.904, 185.156 124, 183.043 124 C 182.582 124, 178.671 126.938, 174.352 130.528 M 189.537 124.941 C 189.217 125.458, 190.146 130.633, 191.601 136.441 C 193.714 144.872, 194.603 147, 196.014 147 C 198.346 147, 207.420 140.712, 207.787 138.843 C 208.071 137.395, 193.015 124, 191.103 124 C 190.561 124, 189.856 124.423, 189.537 124.941" stroke="none" fill="black" fill-rule="evenodd"/>
</svg>