<svg xmlns="http://www.w3.org/2000/svg" width="231" height="162" viewBox="26 40 231 162" version="1.1">
	<path d="M 26 63 L 26 86 59 86 L 92 86 92 144 L 92 202 115.500 202 L 139 202 139 194.057 L 139 186.113 133.416 180.832 C 116.459 164.795, 107.691 144.532, 107.741 121.500 C 107.792 98.281, 115.078 79.947, 130.393 64.502 C 142.023 52.773, 153.755 45.830, 168.500 41.951 C 175.479 40.116, 175.271 40.110, 100.750 40.055 L 26 40 26 63 M 178.500 43.559 C 177.400 43.812, 174.133 44.498, 171.241 45.084 C 158.631 47.635, 144.336 55.664, 133.995 66.005 C 122.239 77.761, 115.340 91.521, 112.437 109 C 110.952 117.941, 110.862 120.935, 111.826 129.165 C 116.588 169.789, 151.328 199.873, 191.002 197.730 C 211.158 196.640, 229.866 186.953, 244.325 170.118 C 249.138 164.513, 256.962 151.620, 256.987 149.250 C 256.997 148.289, 252.063 148, 235.614 148 L 214.228 148 208.364 151.906 C 196.533 159.786, 184.396 161.075, 172.653 155.699 C 165.204 152.288, 156.710 144.144, 153.267 137.112 C 150.830 132.132, 150.519 130.369, 150.510 121.467 C 150.500 111.803, 150.643 111.147, 154.377 103.686 C 165.166 82.127, 190.401 76.162, 209.683 90.614 C 212.814 92.960, 213.233 93, 234.933 93 C 250.940 93, 257 92.683, 257 91.846 C 257 89.782, 250.255 78.646, 245.303 72.535 C 234.994 59.814, 218.878 49.243, 204.057 45.481 C 197.612 43.845, 182.269 42.691, 178.500 43.559 M 180.383 89.890 C 170.496 92.436, 164.263 97.768, 159.214 108 C 156.924 112.641, 156.508 114.749, 156.554 121.500 C 156.621 131.347, 159.407 137.483, 166.850 144.175 C 175.131 151.621, 186.035 153.824, 197.135 150.294 C 204.956 147.807, 213.941 138.651, 216.438 130.624 C 219.816 119.762, 217.219 108.788, 208.876 98.666 C 203.360 91.974, 189.213 87.617, 180.383 89.890 M 180.117 93.906 C 178.975 94.629, 179.284 96.582, 181.890 105.113 C 185.386 116.564, 186.336 118.159, 188.343 115.957 C 190.177 113.946, 195.342 96.333, 194.636 94.494 C 194.211 93.386, 192.442 93.004, 187.781 93.015 C 184.327 93.024, 180.878 93.425, 180.117 93.906 M 162.237 109.750 C 159.720 115.432, 158.713 119.710, 159.746 120.329 C 160.161 120.577, 165.218 120.942, 170.984 121.140 C 184.752 121.613, 185.078 120.565, 173.957 111.586 C 169.471 107.964, 165.472 105, 165.071 105 C 164.670 105, 163.395 107.138, 162.237 109.750 M 200.007 111.788 C 192.321 117.714, 190.512 120.448, 193.693 121.330 C 194.687 121.605, 199.775 121.531, 205 121.165 L 214.500 120.500 214.228 117.500 C 213.760 112.324, 210.975 106, 209.167 106.006 C 208.250 106.009, 204.128 108.611, 200.007 111.788 M 174.352 130.528 C 170.033 134.119, 166.500 137.787, 166.500 138.680 C 166.500 140.555, 175.374 147, 177.956 147 C 179.318 147, 180.290 144.749, 182.455 136.580 C 185.020 126.904, 185.156 124, 183.043 124 C 182.582 124, 178.671 126.938, 174.352 130.528 M 189.537 124.941 C 189.217 125.458, 190.146 130.633, 191.601 136.441 C 193.714 144.872, 194.603 147, 196.014 147 C 198.346 147, 207.420 140.712, 207.787 138.843 C 208.071 137.395, 193.015 124, 191.103 124 C 190.561 124, 189.856 124.423, 189.537 124.941" stroke="none" fill="black" fill-rule="evenodd"/>
</svg>